# Blender v2.92.0 OBJ File: 'room.blend'
# www.blender.org
mtllib room.mtl
o Cube_Cube.001
v -3.300000 -0.300000 4.800000
v -3.300000 4.500000 4.800000
v -3.300000 -0.300000 -4.800000
v -3.300000 4.500000 -4.800000
v 3.300000 -0.300000 4.800000
v 3.300000 4.500000 4.800000
v 3.300000 -0.300000 -4.800000
v 3.300000 4.500000 -4.800000
v -3.300000 -0.300000 -3.737639
v -3.300000 -0.300000 -0.644600
v -3.300000 -0.300000 0.668219
v -3.300000 -0.300000 3.385393
v -3.300000 4.500000 3.385392
v -3.300000 4.500000 0.668219
v -3.300000 4.500000 -0.644600
v -3.300000 4.500000 -3.737639
v 3.300000 -0.300000 3.385392
v 3.300000 -0.300000 0.668219
v 3.300000 -0.300000 -0.644600
v 3.300000 -0.300000 -3.737639
v 3.300000 4.500000 -3.737639
v 3.300000 4.500000 -0.644600
v 3.300000 4.500000 0.668219
v 3.300000 4.500000 3.385393
v -3.300000 1.502843 4.800000
v -3.300000 3.845998 4.800000
v -3.300000 3.845998 -4.800000
v -3.300000 1.502843 -4.800000
v 3.300000 3.845998 -4.800000
v 3.300000 1.502843 -4.800000
v 3.300000 3.845998 4.800000
v 3.300000 1.502843 4.800000
v 3.300000 3.845998 -3.737639
v 3.300000 1.502843 -3.737639
v 3.300000 3.845998 -0.644600
v 3.300000 1.502843 -0.644600
v 3.300000 3.845998 0.668219
v 3.300000 1.502843 0.668219
v 3.300000 3.845998 3.385393
v 3.300000 1.502843 3.385393
v -3.300000 3.845998 3.385392
v -3.300000 1.502843 3.385392
v -3.300000 3.845998 0.668219
v -3.300000 1.502843 0.668219
v -3.300000 3.845998 -0.644600
v -3.300000 1.502843 -0.644600
v -3.300000 3.845998 -3.737639
v -3.300000 1.502843 -3.737639
v -3.000000 0.000000 4.500000
v -3.000000 4.200000 4.500000
v -3.000000 0.000000 -4.500000
v -3.000000 4.200000 -4.500000
v 3.000000 0.000000 4.500000
v 3.000000 4.200000 4.500000
v 3.000000 0.000000 -4.500000
v 3.000000 4.200000 -4.500000
v -3.000000 0.000000 -3.737639
v -3.000000 0.000000 -0.644600
v -3.000000 0.000000 0.668219
v -3.000000 0.000000 3.385393
v -3.000000 4.200000 3.385392
v -3.000000 4.200000 0.668219
v -3.000000 4.200000 -0.644600
v -3.000000 4.200000 -3.737639
v 3.000000 0.000000 3.385392
v 3.000000 0.000000 0.668219
v 3.000000 0.000000 -0.644600
v 3.000000 0.000000 -3.737639
v 3.000000 4.200000 -3.737639
v 3.000000 4.200000 -0.644600
v 3.000000 4.200000 0.668219
v 3.000000 4.200000 3.385393
v -3.000000 1.502843 4.500000
v -3.000000 3.845998 4.500000
v -3.000000 3.845998 -4.500000
v -3.000000 1.502843 -4.500000
v 3.000000 3.845998 -4.500000
v 3.000000 1.502843 -4.500000
v 3.000000 3.845998 4.500000
v 3.000000 1.502843 4.500000
v 3.000000 3.845998 -3.737639
v 3.000000 1.502843 -3.737639
v 3.000000 3.845998 -0.644600
v 3.000000 1.502843 -0.644600
v 3.000000 3.845998 0.668219
v 3.000000 1.502843 0.668219
v 3.000000 3.845998 3.385393
v 3.000000 1.502843 3.385393
v -3.000000 3.845998 3.385392
v -3.000000 1.502843 3.385392
v -3.000000 3.845998 0.668219
v -3.000000 1.502843 0.668219
v -3.000000 3.845998 -0.644600
v -3.000000 1.502843 -0.644600
v -3.000000 3.845998 -3.737639
v -3.000000 1.502843 -3.737639
vt 2.103245 -14.250966
vt 1.267102 -14.250966
vt 1.267102 -15.609203
vt 2.103245 -15.609203
vt -14.773064 16.609203
vt -15.609207 16.609203
vt -15.609207 8.171048
vt -14.773064 8.171048
vt 0.569041 -1.526936
vt -0.267102 -1.526936
vt -0.267102 -3.335523
vt 0.569041 -3.335523
vt -8.636230 16.609203
vt -9.472374 16.609203
vt -9.472374 8.171048
vt -8.636230 8.171048
vt -15.609207 -5.144109
vt -7.171052 -5.144109
vt -7.171052 -3.335523
vt -15.609207 -3.335523
vt -7.171052 -5.144109
vt 1.267102 -5.144109
vt 1.267102 -3.335523
vt -7.171052 -3.335523
vt -7.171052 -15.609203
vt -7.171052 -14.250966
vt 1.267102 -10.296485
vt -7.171052 -10.296485
vt 1.267102 -8.618036
vt -7.171052 -8.618036
vt -15.609207 -15.609203
vt -7.171052 -15.609203
vt -7.171052 -14.250966
vt -15.609207 -14.250966
vt -7.171052 -10.296485
vt -15.609207 -10.296485
vt -7.171052 -8.618036
vt -15.609207 -8.618036
vt 0.569041 8.938158
vt -0.267102 8.938158
vt -0.267102 7.579921
vt 0.569041 7.579921
vt -0.267102 3.625440
vt 0.569041 3.625440
vt -0.267102 1.946993
vt 0.569041 1.946993
vt 2.103245 -3.335523
vt 2.103245 -5.144109
vt 2.103245 -8.618036
vt 2.103245 -10.296485
vt 7.403935 -10.296485
vt 5.098988 -10.296485
vt 5.098988 -14.250966
vt 7.403935 -14.250966
vt 7.403935 -8.618036
vt 5.098988 -8.618036
vt 7.403935 -5.144109
vt 5.098988 -5.144109
vt 7.403935 -3.335523
vt 5.098988 -3.335523
vt 5.869730 1.946993
vt 3.564783 1.946993
vt 3.564783 -1.526936
vt 5.869730 -1.526936
vt 5.869730 3.625440
vt 3.564783 3.625440
vt 5.869730 7.579921
vt 3.564783 7.579921
vt 5.869730 8.938158
vt 3.564783 8.938158
vt -3.335542 16.609203
vt -5.640489 16.609203
vt -5.640489 8.171048
vt -3.335542 8.171048
vt 3.564783 -3.335523
vt 5.869730 -3.335523
vt -9.472374 16.609203
vt -11.777322 16.609203
vt -11.777322 8.171048
vt -9.472374 8.171048
vt 5.098988 -15.609203
vt 7.403935 -15.609203
vt 6.322323 7.196370
vt 6.322323 8.171056
vt 5.869730 8.171056
vt 5.869730 7.196370
vt 6.322323 15.842109
vt 5.869730 15.842109
vt 7.856543 -5.527660
vt 7.856543 -4.102624
vt 7.403950 -4.102624
vt 7.403950 -5.527660
vt 11.692070 -3.335523
vt 11.692070 4.335530
vt 11.239477 4.335530
vt 11.239477 -3.335523
vt -7.938154 6.746021
vt -7.938154 8.171056
vt -15.609207 8.171056
vt -15.609207 6.746021
vt -0.267102 6.746021
vt -0.267102 8.171056
vt -7.938154 8.171056
vt -7.938154 6.746021
vt -0.267102 -3.335523
vt -0.267102 -2.360837
vt -7.938154 -2.360837
vt -7.938154 -3.335523
vt -0.267102 1.593645
vt -7.938154 1.593645
vt -0.267102 3.272092
vt -7.938154 3.272092
vt -7.938154 -3.335523
vt -7.938154 -2.360837
vt -15.609207 -2.360837
vt -15.609207 -3.335523
vt -7.938154 1.593645
vt -15.609207 1.593645
vt -7.938154 3.272092
vt -15.609207 3.272092
vt 7.856543 -15.609203
vt 7.856543 -14.634517
vt 7.403950 -14.634517
vt 7.403950 -15.609203
vt 7.856543 -10.680036
vt 7.403950 -10.680036
vt 7.856543 -9.001589
vt 7.403950 -9.001589
vt 6.322323 -3.335523
vt 6.322323 -1.910487
vt 5.869730 -1.910487
vt 5.869730 -3.335523
vt 6.322323 1.563442
vt 5.869730 1.563442
vt 6.322323 3.241889
vt 5.869730 3.241889
vt 11.239461 3.241889
vt 11.239461 7.196370
vt 9.318066 7.196370
vt 9.318066 3.241889
vt 11.239461 1.563442
vt 9.318066 1.563442
vt 11.239461 -1.910487
vt 9.318066 -1.910487
vt 11.239461 -3.335523
vt 9.318066 -3.335523
vt 12.773682 -9.001589
vt 12.773682 -5.527660
vt 10.852284 -5.527660
vt 10.852284 -9.001589
vt 12.773682 -10.680036
vt 10.852284 -10.680036
vt 12.773682 -14.634517
vt 10.852284 -14.634517
vt 12.773682 -15.609203
vt 10.852284 -15.609203
vt 16.609207 -3.335523
vt 16.609207 4.335530
vt 14.687811 4.335530
vt 14.687811 -3.335523
vt 12.773682 -4.102624
vt 10.852284 -4.102624
vt 11.239461 8.171056
vt 11.239461 15.842109
vt 9.318066 15.842109
vt 9.318066 8.171056
vt -1.801314 8.171054
vt -1.801314 11.166797
vt -2.184865 11.166797
vt -2.184865 8.171054
vt -1.801314 11.166797
vt -1.801314 8.171054
vt -1.417763 8.171054
vt -1.417763 11.166797
vt -2.568424 11.166799
vt -2.568424 8.171056
vt -2.184873 8.171056
vt -2.184873 11.166799
vt -1.417763 11.166797
vt -1.417763 8.171054
vt -1.034212 8.171054
vt -1.034212 11.166797
vt 11.623028 4.335522
vt 11.623028 8.289996
vt 11.239477 8.289996
vt 11.239477 4.335522
vt 11.623020 8.289996
vt 11.623020 4.335522
vt 12.006571 4.335522
vt 12.006571 8.289996
vt -2.951975 8.171054
vt -2.951975 11.644983
vt -3.335526 11.644983
vt -3.335526 8.171054
vt -2.951975 11.644983
vt -2.951975 8.171054
vt -2.568424 8.171054
vt -2.568424 11.644983
vn -1.0000 0.0000 0.0000
vn 0.0000 0.0000 -1.0000
vn 1.0000 0.0000 0.0000
vn 0.0000 0.0000 1.0000
vn 0.0000 -1.0000 0.0000
vn 0.0000 1.0000 0.0000
usemtl Material
s off
f 47/1/1 16/2/1 4/3/1 27/4/1
f 27/5/2 4/6/2 8/7/2 29/8/2
f 39/9/3 24/10/3 6/11/3 31/12/3
f 31/13/4 6/14/4 2/15/4 26/16/4
f 12/17/5 17/18/5 5/19/5 1/20/5
f 24/21/6 13/22/6 2/23/6 6/24/6
f 8/25/6 4/3/6 16/2/6 21/26/6
f 21/26/6 16/2/6 15/27/6 22/28/6
f 22/28/6 15/27/6 14/29/6 23/30/6
f 23/30/6 14/29/6 13/22/6 24/21/6
f 3/31/5 7/32/5 20/33/5 9/34/5
f 9/34/5 20/33/5 19/35/5 10/36/5
f 10/36/5 19/35/5 18/37/5 11/38/5
f 11/38/5 18/37/5 17/18/5 12/17/5
f 29/39/3 8/40/3 21/41/3 33/42/3
f 33/42/3 21/41/3 22/43/3 35/44/3
f 35/44/3 22/43/3 23/45/3 37/46/3
f 37/46/3 23/45/3 24/10/3 39/9/3
f 26/47/1 2/23/1 13/22/1 41/48/1
f 41/48/1 13/22/1 14/29/1 43/49/1
f 43/49/1 14/29/1 15/27/1 45/50/1
f 45/50/1 15/27/1 16/2/1 47/1/1
f 10/51/1 46/52/1 48/53/1 9/54/1
f 11/55/1 44/56/1 46/52/1 10/51/1
f 44/56/1 43/49/1 45/50/1 46/52/1
f 12/57/1 42/58/1 44/56/1 11/55/1
f 1/59/1 25/60/1 42/58/1 12/57/1
f 25/60/1 26/47/1 41/48/1 42/58/1
f 18/61/3 38/62/3 40/63/3 17/64/3
f 38/62/3 37/46/3 39/9/3 40/63/3
f 19/65/3 36/66/3 38/62/3 18/61/3
f 36/66/3 35/44/3 37/46/3 38/62/3
f 20/67/3 34/68/3 36/66/3 19/65/3
f 34/68/3 33/42/3 35/44/3 36/66/3
f 7/69/3 30/70/3 34/68/3 20/67/3
f 30/70/3 29/39/3 33/42/3 34/68/3
f 5/71/4 32/72/4 25/73/4 1/74/4
f 32/72/4 31/13/4 26/16/4 25/73/4
f 17/64/3 40/63/3 32/75/3 5/76/3
f 40/63/3 39/9/3 31/12/3 32/75/3
f 3/77/2 28/78/2 30/79/2 7/80/2
f 28/78/2 27/5/2 29/8/2 30/79/2
f 9/54/1 48/53/1 28/81/1 3/82/1
f 48/53/1 47/1/1 27/4/1 28/81/1
f 95/83/3 75/84/3 52/85/3 64/86/3
f 75/84/4 77/87/4 56/88/4 52/85/4
f 87/89/1 79/90/1 54/91/1 72/92/1
f 79/93/2 74/94/2 50/95/2 54/96/2
f 60/97/6 49/98/6 53/99/6 65/100/6
f 72/101/5 54/102/5 50/103/5 61/104/5
f 56/105/5 69/106/5 64/107/5 52/108/5
f 69/106/5 70/109/5 63/110/5 64/107/5
f 70/109/5 71/111/5 62/112/5 63/110/5
f 71/111/5 72/101/5 61/104/5 62/112/5
f 51/113/6 57/114/6 68/115/6 55/116/6
f 57/114/6 58/117/6 67/118/6 68/115/6
f 58/117/6 59/119/6 66/120/6 67/118/6
f 59/119/6 60/97/6 65/100/6 66/120/6
f 77/121/1 81/122/1 69/123/1 56/124/1
f 81/122/1 83/125/1 70/126/1 69/123/1
f 83/125/1 85/127/1 71/128/1 70/126/1
f 85/127/1 87/89/1 72/92/1 71/128/1
f 74/129/3 89/130/3 61/131/3 50/132/3
f 89/130/3 91/133/3 62/134/3 61/131/3
f 91/133/3 93/135/3 63/136/3 62/134/3
f 93/135/3 95/83/3 64/86/3 63/136/3
f 58/137/3 57/138/3 96/139/3 94/140/3
f 59/141/3 58/137/3 94/140/3 92/142/3
f 92/142/3 94/140/3 93/135/3 91/133/3
f 60/143/3 59/141/3 92/142/3 90/144/3
f 49/145/3 60/143/3 90/144/3 73/146/3
f 73/146/3 90/144/3 89/130/3 74/129/3
f 66/147/1 65/148/1 88/149/1 86/150/1
f 86/150/1 88/149/1 87/89/1 85/127/1
f 67/151/1 66/147/1 86/150/1 84/152/1
f 84/152/1 86/150/1 85/127/1 83/125/1
f 68/153/1 67/151/1 84/152/1 82/154/1
f 82/154/1 84/152/1 83/125/1 81/122/1
f 55/155/1 68/153/1 82/154/1 78/156/1
f 78/156/1 82/154/1 81/122/1 77/121/1
f 53/157/2 49/158/2 73/159/2 80/160/2
f 80/160/2 73/159/2 74/94/2 79/93/2
f 65/148/1 53/161/1 80/162/1 88/149/1
f 88/149/1 80/162/1 79/90/1 87/89/1
f 51/163/4 55/164/4 78/165/4 76/166/4
f 76/166/4 78/165/4 77/87/4 75/84/4
f 57/138/3 51/163/3 76/166/3 96/139/3
f 96/139/3 76/166/3 75/84/3 95/83/3
f 42/167/2 41/168/2 89/169/2 90/170/2
f 43/171/4 44/172/4 92/173/4 91/174/4
f 46/175/2 45/176/2 93/177/2 94/178/2
f 47/179/4 48/180/4 96/181/4 95/182/4
f 48/183/6 46/184/6 94/185/6 96/186/6
f 45/187/5 47/188/5 95/189/5 93/190/5
f 44/191/6 42/192/6 90/193/6 92/194/6
f 41/195/5 43/196/5 91/197/5 89/198/5
