# Blender v2.92.0 OBJ File: 'room.blend'
# www.blender.org
mtllib simpleRoom.mtl
o Cube_Cube.001
v -3.300000 -0.300000 4.800000
v -3.300000 -0.300000 -4.800000
v 3.300000 -0.300000 4.800000
v 3.300000 -0.300000 -4.800000
v -3.300000 -0.300000 -2.473741
v -3.300000 -0.300000 -1.126259
v -3.300000 -0.300000 1.149878
v -3.300000 -0.300000 2.450122
v 3.300000 -0.300000 2.450121
v 3.300000 -0.300000 1.149878
v 3.300000 -0.300000 -1.126259
v 3.300000 -0.300000 -2.473741
v -3.300000 0.271771 4.800000
v -3.300000 0.695501 4.800000
v -3.300000 0.695501 -4.800000
v -3.300000 0.271771 -4.800000
v 3.300000 0.695501 -4.800000
v 3.300000 0.271771 -4.800000
v 3.300000 0.695501 4.800000
v 3.300000 0.271771 4.800000
v 3.300000 0.695501 -2.473741
v 3.300000 0.271771 -2.473741
v 3.300000 0.695501 -1.126259
v 3.300000 0.271771 -1.126259
v 3.300000 0.695501 1.149878
v 3.300000 0.271771 1.149878
v 3.300000 0.695501 2.450122
v 3.300000 0.271771 2.450122
v -3.300000 0.695501 2.450121
v -3.300000 0.271771 2.450121
v -3.300000 0.695501 1.149878
v -3.300000 0.271771 1.149878
v -3.300000 0.695501 -1.126259
v -3.300000 0.271771 -1.126259
v -3.300000 0.695501 -2.473741
v -3.300000 0.271771 -2.473741
v -3.000000 0.000000 4.500000
v -3.000000 0.000000 -4.500000
v 3.000000 0.000000 4.500000
v 3.000000 0.000000 -4.500000
v -3.000000 0.000000 -2.473741
v -3.000000 0.000000 -1.126259
v -3.000000 0.000000 1.149878
v -3.000000 0.000000 2.450122
v 3.000000 0.000000 2.450121
v 3.000000 0.000000 1.149878
v 3.000000 0.000000 -1.126259
v 3.000000 0.000000 -2.473741
v -3.000000 0.271771 4.500000
v -3.000000 0.695501 4.500000
v -3.000000 0.695501 -4.500000
v -3.000000 0.271771 -4.500000
v 3.000000 0.695501 -4.500000
v 3.000000 0.271771 -4.500000
v 3.000000 0.695501 4.500000
v 3.000000 0.271771 4.500000
v 3.000000 0.695501 -2.473741
v 3.000000 0.271771 -2.473741
v 3.000000 0.695501 -1.126259
v 3.000000 0.271771 -1.126259
v 3.000000 0.695501 1.149878
v 3.000000 0.271771 1.149878
v 3.000000 0.695501 2.450122
v 3.000000 0.271771 2.450122
v -3.000000 0.695501 2.450121
v -3.000000 0.271771 2.450121
v -3.000000 0.695501 1.149878
v -3.000000 0.271771 1.149878
v -3.000000 0.695501 -1.126259
v -3.000000 0.271771 -1.126259
v -3.000000 0.695501 -2.473741
v -3.000000 0.271771 -2.473741
vt 0.125000 0.700000
vt 0.375000 0.700000
vt 0.375000 0.750000
vt 0.125000 0.750000
vt 0.125000 0.500000
vt 0.375000 0.500000
vt 0.375000 0.550000
vt 0.125000 0.550000
vt 0.375000 0.600000
vt 0.125000 0.600000
vt 0.375000 0.650000
vt 0.125000 0.650000
vt 0.375000 0.150000
vt 0.503098 0.150000
vt 0.503098 0.200000
vt 0.375000 0.200000
vt 0.375000 0.100000
vt 0.503098 0.100000
vt 0.586431 0.100000
vt 0.586431 0.150000
vt 0.375000 0.050000
vt 0.503098 0.050000
vt 0.375000 0.000000
vt 0.503098 0.000000
vt 0.586431 0.000000
vt 0.586431 0.050000
vt 0.503098 0.650000
vt 0.503098 0.700000
vt 0.586431 0.650000
vt 0.586431 0.700000
vt 0.503098 0.600000
vt 0.586431 0.600000
vt 0.503098 0.550000
vt 0.586431 0.550000
vt 0.503098 0.500000
vt 0.586431 0.500000
vt 0.503098 0.750000
vt 0.503098 1.000000
vt 0.375000 1.000000
vt 0.586431 0.750000
vt 0.586431 1.000000
vt 0.375000 0.250000
vt 0.503098 0.250000
vt 0.586431 0.250000
vt 0.586431 0.200000
vt 0.125000 0.700000
vt 0.125000 0.750000
vt 0.375000 0.750000
vt 0.375000 0.700000
vt 0.125000 0.500000
vt 0.125000 0.550000
vt 0.375000 0.550000
vt 0.375000 0.500000
vt 0.125000 0.600000
vt 0.375000 0.600000
vt 0.125000 0.650000
vt 0.375000 0.650000
vt 0.375000 0.150000
vt 0.375000 0.200000
vt 0.503098 0.200000
vt 0.503098 0.150000
vt 0.375000 0.100000
vt 0.503098 0.100000
vt 0.586431 0.150000
vt 0.586431 0.100000
vt 0.375000 0.050000
vt 0.503098 0.050000
vt 0.375000 0.000000
vt 0.503098 0.000000
vt 0.586431 0.050000
vt 0.586431 0.000000
vt 0.503098 0.700000
vt 0.503098 0.650000
vt 0.586431 0.700000
vt 0.586431 0.650000
vt 0.503098 0.600000
vt 0.586431 0.600000
vt 0.503098 0.550000
vt 0.586431 0.550000
vt 0.503098 0.500000
vt 0.586431 0.500000
vt 0.375000 1.000000
vt 0.503098 1.000000
vt 0.503098 0.750000
vt 0.586431 1.000000
vt 0.586431 0.750000
vt 0.375000 0.250000
vt 0.503098 0.250000
vt 0.586431 0.250000
vt 0.586431 0.200000
vn 0.0000 -1.0000 0.0000
vn -1.0000 0.0000 0.0000
vn 1.0000 0.0000 0.0000
vn 0.0000 0.0000 1.0000
vn 0.0000 0.0000 -1.0000
vn 0.0000 1.0000 0.0000
usemtl None
s off
f 8/1/1 9/2/1 3/3/1 1/4/1
f 2/5/1 4/6/1 12/7/1 5/8/1
f 5/8/1 12/7/1 11/9/1 6/10/1
f 6/10/1 11/9/1 10/11/1 7/12/1
f 7/12/1 10/11/1 9/2/1 8/1/1
f 6/13/2 34/14/2 36/15/2 5/16/2
f 7/17/2 32/18/2 34/14/2 6/13/2
f 32/18/2 31/19/2 33/20/2 34/14/2
f 8/21/2 30/22/2 32/18/2 7/17/2
f 1/23/2 13/24/2 30/22/2 8/21/2
f 13/24/2 14/25/2 29/26/2 30/22/2
f 10/11/3 26/27/3 28/28/3 9/2/3
f 26/27/3 25/29/3 27/30/3 28/28/3
f 11/9/3 24/31/3 26/27/3 10/11/3
f 24/31/3 23/32/3 25/29/3 26/27/3
f 12/7/3 22/33/3 24/31/3 11/9/3
f 22/33/3 21/34/3 23/32/3 24/31/3
f 4/6/3 18/35/3 22/33/3 12/7/3
f 18/35/3 17/36/3 21/34/3 22/33/3
f 3/3/4 20/37/4 13/38/4 1/39/4
f 20/37/4 19/40/4 14/41/4 13/38/4
f 9/2/3 28/28/3 20/37/3 3/3/3
f 28/28/3 27/30/3 19/40/3 20/37/3
f 2/42/5 16/43/5 18/35/5 4/6/5
f 16/43/5 15/44/5 17/36/5 18/35/5
f 5/16/2 36/15/2 16/43/2 2/42/2
f 36/15/2 35/45/2 15/44/2 16/43/2
f 44/46/6 37/47/6 39/48/6 45/49/6
f 38/50/6 41/51/6 48/52/6 40/53/6
f 41/51/6 42/54/6 47/55/6 48/52/6
f 42/54/6 43/56/6 46/57/6 47/55/6
f 43/56/6 44/46/6 45/49/6 46/57/6
f 42/58/3 41/59/3 72/60/3 70/61/3
f 43/62/3 42/58/3 70/61/3 68/63/3
f 68/63/3 70/61/3 69/64/3 67/65/3
f 44/66/3 43/62/3 68/63/3 66/67/3
f 37/68/3 44/66/3 66/67/3 49/69/3
f 49/69/3 66/67/3 65/70/3 50/71/3
f 46/57/2 45/49/2 64/72/2 62/73/2
f 62/73/2 64/72/2 63/74/2 61/75/2
f 47/55/2 46/57/2 62/73/2 60/76/2
f 60/76/2 62/73/2 61/75/2 59/77/2
f 48/52/2 47/55/2 60/76/2 58/78/2
f 58/78/2 60/76/2 59/77/2 57/79/2
f 40/53/2 48/52/2 58/78/2 54/80/2
f 54/80/2 58/78/2 57/79/2 53/81/2
f 39/48/5 37/82/5 49/83/5 56/84/5
f 56/84/5 49/83/5 50/85/5 55/86/5
f 45/49/2 39/48/2 56/84/2 64/72/2
f 64/72/2 56/84/2 55/86/2 63/74/2
f 38/87/4 40/53/4 54/80/4 52/88/4
f 52/88/4 54/80/4 53/81/4 51/89/4
f 41/59/3 38/87/3 52/88/3 72/60/3
f 72/60/3 52/88/3 51/89/3 71/90/3
f 30/22/5 29/26/5 65/70/5 66/67/5
f 31/19/4 32/18/4 68/63/4 67/65/4
f 34/14/5 33/20/5 69/64/5 70/61/5
f 35/45/4 36/15/4 72/60/4 71/90/4
f 36/15/6 34/14/6 70/61/6 72/60/6
f 33/20/6 31/19/6 67/65/6 69/64/6
f 32/18/6 30/22/6 66/67/6 68/63/6
f 29/26/6 14/25/6 50/71/6 65/70/6
f 27/30/6 25/29/6 61/75/6 63/74/6
f 25/29/6 23/32/6 59/77/6 61/75/6
f 23/32/6 21/34/6 57/79/6 59/77/6
f 21/34/6 17/36/6 53/81/6 57/79/6
f 14/41/6 19/40/6 55/86/6 50/85/6
f 19/40/6 27/30/6 63/74/6 55/86/6
f 17/36/6 15/44/6 51/89/6 53/81/6
f 15/44/6 35/45/6 71/90/6 51/89/6
